<?xml version="1.0" encoding="utf-8"?>
<!-- Generator: Adobe Illustrator 19.2.1, SVG Export Plug-In . SVG Version: 6.00 Build 0)  -->
<svg version="1.1" id="layer" xmlns="http://www.w3.org/2000/svg" xmlns:xlink="http://www.w3.org/1999/xlink" x="0px" y="0px"
	 viewBox="0 0 652 652" style="enable-background:new 0 0 652 652;" xml:space="preserve">
<style type="text/css">
	.st0{fill-rule:evenodd;clip-rule:evenodd;fill:#2662AB;}
</style>
<g>
	<path class="st0" d="M26,290.4h32.5v60.7c0,10.3,7.2,17.7,16.1,17.7c8.8,0,16.1-7.4,16.1-17.7v-60.7h32.5v58.1
		c0,31.7-18.3,43-48.5,43c-30.2,0-48.5-11.3-48.5-43V290.4z"/>
	<path class="st0" d="M227.4,389.3h-32.5v-60.7c0-10.3-7.2-17.7-16.1-17.7c-8.8,0-16.1,7.4-16.1,17.7v60.7h-32.5v-58.1
		c0-31.7,18.3-43,48.5-43c30.2,0,48.5,11.3,48.5,43V389.3z"/>
	<rect x="236.3" y="290.4" class="st0" width="32.1" height="99"/>
	<path class="st0" d="M277.1,259.7h32.1v30.7h19.6v20.7h-19.6v45.7c0.1,6,3.6,9.2,9,9.4H329v23.2h-30.4c-14.6,0-21.6-12.2-21.6-24.9
		V259.7z"/>
	<path class="st0" d="M377.7,309.1c10.6,0,17.3,7.4,20.3,21.3h-41.6C359.2,318,365,309.1,377.7,309.1 M377.3,287.8
		c32.6,0,51.7,23.3,52.6,52.6c0,2.7-0.1,5.4-0.4,8h-72.6c-1.4,23.9,32.9,30.5,40.1,11.2h30.3c-5.8,19.5-21.6,33.4-50,33.4
		c-30,0-52.6-21.8-52.6-52.6C324.7,311.4,348.3,287.8,377.3,287.8"/>
	<path class="st0" d="M479.7,287.8c24.2,0,44.6,16.5,50.6,38.8h-32.3c-3.1-8.6-9.5-14.6-18.3-14.6c-12.6,0-20.6,12.6-20.6,28.2
		c0,15.6,9.2,28.2,20.6,28.2c8.6,0,16-7.2,19-17.5H531c-4.9,23.8-26,41.7-51.3,41.7c-28.9,0-52.4-23.5-52.4-52.4
		C427.4,311.2,450.8,287.8,479.7,287.8"/>
	<path class="st0" d="M559.4,389.3h-32.2V259.7h32.2v44.7c17.1-24.9,65.1-24.5,66.6,16.2v68.7h-32.2v-60.7
		c0-18.9-29.9-21.6-34.4,2.7V389.3z"/>
</g>
</svg>
